<svg xmlns="http://www.w3.org/2000/svg" xmlns:xlink="http://www.w3.org/1999/xlink" width="80" height="63" viewBox="0 0 80 63">
  <defs>
    <clipPath id="clip-Icon-scroll">
      <rect width="80" height="63"/>
    </clipPath>
  </defs>
  <g id="Icon-scroll" clip-path="url(#clip-Icon-scroll)">
    <path id="Path" d="M0,0H80.316V80.316H0Z" transform="translate(0 -0.316)" fill="none"/>
    <path id="Path-2" data-name="Path" d="M58.936,0l4.023,2.413a1.673,1.673,0,0,1,0,2.871L31.886,23.928.814,5.284a1.673,1.673,0,0,1,0-2.871L4.836,0l27.05,16.231Z" transform="translate(8.271 34.822)" fill="#199b4e"/>
    <path id="Path-3" data-name="Path" d="M33.606.478,62.958,18.087a1.673,1.673,0,0,1,0,2.871L31.886,39.6.814,20.959a1.673,1.673,0,0,1,0-2.871L30.163.478a3.347,3.347,0,0,1,3.447,0Z" transform="translate(8.271 3.586)" fill="#0d5734"/>
  </g>
</svg>
